<svg width="20" height="20" viewBox="0 0 20 20" fill="none" xmlns="http://www.w3.org/2000/svg">
<path fill-rule="evenodd" clip-rule="evenodd" d="M19.1613 9.81249C19.1613 4.19127 17.1811 1.61279 10.5806 1.61279C3.98015 1.61279 2 4.19127 2 9.81249C2 13.8129 3.00289 16.2723 5.9603 17.358V19.2506C5.9603 19.9472 6.83439 20.2654 7.28717 19.7336L8.81326 17.9412C9.36176 17.9887 9.95012 18.0122 10.5806 18.0122C17.1811 18.0122 19.1613 15.4337 19.1613 9.81249ZM9.17787 16.6483C9.61541 16.683 10.0825 16.7002 10.5806 16.7002C16.1657 16.7002 17.8412 14.5343 17.8412 9.81249C17.8412 5.09067 16.1657 2.92474 10.5806 2.92474C4.99561 2.92474 3.3201 5.09067 3.3201 9.81249C3.3201 13.15 4.15721 15.2106 6.62035 16.1319V18.9358C6.62035 19.1803 6.92705 19.2919 7.08592 19.1053L9.17787 16.6483Z" fill="#BFC8D0"/>
<path d="M10.5807 16.2336C10.076 16.2336 9.6029 16.2161 9.15967 16.1807L7.04055 18.6792C6.87962 18.869 6.56894 18.7554 6.56894 18.5069V15.6557C4.07381 14.7189 3.22583 12.6235 3.22583 9.22971C3.22583 4.42827 4.9231 2.22583 10.5807 2.22583C16.2382 2.22583 17.9355 4.42827 17.9355 9.22971C17.9355 14.0312 16.2382 16.2336 10.5807 16.2336Z" fill="#9179EE"/>
<path fill-rule="evenodd" clip-rule="evenodd" d="M19.1613 9.1997C19.1613 3.57848 17.1811 1 10.5806 1C3.98015 1 2 3.57848 2 9.1997C2 13.2001 3.00289 15.6595 5.9603 16.7452V18.6378C5.9603 19.3344 6.83439 19.6526 7.28717 19.1208L8.81326 17.3284C9.36176 17.3759 9.95012 17.3994 10.5806 17.3994C17.1811 17.3994 19.1613 14.8209 19.1613 9.1997ZM9.17787 16.0355C9.61541 16.0702 10.0825 16.0874 10.5806 16.0874C16.1657 16.0874 17.8412 13.9215 17.8412 9.1997C17.8412 4.47787 16.1657 2.31195 10.5806 2.31195C4.99561 2.31195 3.3201 4.47787 3.3201 9.1997C3.3201 12.5372 4.15721 14.5978 6.62035 15.5192V18.323C6.62035 18.5675 6.92705 18.6791 7.08592 18.4925L9.17787 16.0355Z" fill="white"/>
<path d="M6.60927 5.37236C6.66528 5.34526 6.75303 5.32137 6.83927 5.31998C6.92769 5.31856 6.97376 5.34052 6.99218 5.35667C7.22226 5.55841 7.57889 5.91455 7.81917 6.21889C7.9433 6.3761 8.09332 6.57582 8.21832 6.74936C8.28082 6.83615 8.33596 6.91484 8.37793 6.97741C8.39896 7.00877 8.41574 7.03468 8.4281 7.05471C8.43656 7.06842 8.4411 7.07643 8.44303 7.07987C8.44406 7.08334 8.44877 7.09822 8.45292 7.12525C8.45814 7.15925 8.46064 7.20111 8.45709 7.24486C8.44983 7.33437 8.42041 7.40623 8.36748 7.4547C8.18793 7.61914 7.94449 7.77142 7.849 7.8243L7.82409 7.8381L7.80214 7.85626C7.63262 7.99649 7.37851 8.38139 7.60111 8.85715C7.78658 9.25357 8.19987 10.0632 8.92605 10.6732C9.63623 11.2697 10.3946 11.5906 10.8927 11.6957L10.924 11.7023H10.9525C10.9539 11.7024 10.9569 11.7027 10.9617 11.7034C10.9736 11.7051 10.9879 11.7075 11.0103 11.7115C11.0142 11.7121 11.0182 11.7129 11.0224 11.7136C11.1756 11.7407 11.5431 11.8057 11.851 11.4988C12.0488 11.3018 12.2292 11.0964 12.3068 11.0041C12.3614 10.9543 12.5392 10.8512 12.7641 10.9272C13.1901 11.0712 13.6965 11.3961 13.9413 11.5608C14.1309 11.6883 14.5598 11.9957 14.7532 12.1353L14.7533 12.1354C14.7694 12.147 14.8071 12.185 14.8275 12.2377C14.8438 12.2799 14.8525 12.3379 14.8133 12.4218C14.7407 12.5774 14.5194 12.8743 14.2199 13.1341C13.9148 13.3986 13.5974 13.5645 13.3431 13.5645C13.344 13.5645 13.3431 13.5643 13.3402 13.5639C13.3289 13.5624 13.2867 13.5567 13.2033 13.538C13.1095 13.5169 12.9828 13.4839 12.828 13.4373C12.5187 13.3443 12.1036 13.1991 11.6243 12.9929C10.6648 12.5802 9.45701 11.9266 8.32621 10.964C7.61493 10.3586 6.94384 9.52147 6.4213 8.73788C5.89437 7.9477 5.54188 7.24736 5.44595 6.92394L5.43923 6.9013L5.42913 6.87996C5.40525 6.82951 5.37159 6.7217 5.37092 6.59944C5.37026 6.48133 5.39986 6.3685 5.47795 6.27493C5.73538 5.96643 6.00794 5.66327 6.60927 5.37236ZM6.60927 5.37236L6.47582 5.09649M6.60927 5.37236L6.47582 5.09649M6.47582 5.09649C5.81965 5.41393 5.51418 5.7532 5.24265 6.07859C4.97113 6.40397 5.06918 6.83583 5.15215 7.01109L7.99747 8.09239C8.10495 8.03287 8.37081 7.8672 8.57446 7.6807C8.82901 7.44757 8.77244 7.06069 8.72153 6.95156C8.67062 6.84244 8.31425 6.35139 8.0597 6.02898C7.80514 5.70658 7.43463 5.33705 7.19422 5.12625C7.00189 4.95761 6.66634 5.00432 6.47582 5.09649ZM10.7501 4.38079C10.7503 4.38062 10.7505 4.38045 10.7507 4.38026C10.7551 4.37613 10.7641 4.3709 10.7783 4.3709C13.225 4.3709 15.1764 6.23281 15.1774 8.49147C15.177 8.492 15.1763 8.49277 15.1753 8.4937C15.1709 8.49784 15.1619 8.50306 15.1477 8.50306C15.1335 8.50306 15.1245 8.49784 15.1201 8.4937C15.1191 8.49277 15.1184 8.492 15.118 8.49147C15.1171 6.20928 13.1567 4.39068 10.7783 4.39068C10.7641 4.39068 10.7551 4.38545 10.7507 4.38132C10.7505 4.38113 10.7503 4.38096 10.7501 4.38079ZM10.7507 6.91201C10.7505 6.91183 10.7503 6.91166 10.7501 6.91149C10.7503 6.91132 10.7505 6.91114 10.7507 6.91096C10.7551 6.90683 10.7641 6.9016 10.7783 6.9016C11.7399 6.9016 12.4875 7.63045 12.4885 8.49147C12.4881 8.492 12.4875 8.49277 12.4865 8.4937C12.4821 8.49784 12.473 8.50306 12.4588 8.50306C12.4447 8.50306 12.4356 8.49784 12.4312 8.4937C12.4302 8.49277 12.4296 8.492 12.4292 8.49147C12.4282 7.60697 11.6717 6.92137 10.7783 6.92137C10.7641 6.92137 10.7551 6.91615 10.7507 6.91201ZM10.7507 5.64667C10.7505 5.64648 10.7503 5.64631 10.7501 5.64614C10.7503 5.64597 10.7505 5.64579 10.7507 5.64561C10.7551 5.64148 10.7641 5.63625 10.7783 5.63625C12.4825 5.63625 13.8319 6.93163 13.8329 8.49147C13.8325 8.492 13.8319 8.49277 13.8309 8.4937C13.8265 8.49784 13.8174 8.50306 13.8033 8.50306C13.7891 8.50306 13.78 8.49784 13.7756 8.4937C13.7746 8.49277 13.774 8.492 13.7736 8.49147C13.7726 6.90812 12.4142 5.65602 10.7783 5.65602C10.7641 5.65602 10.7551 5.6508 10.7507 5.64667Z" fill="white" stroke="white" stroke-width="0.612903" stroke-linecap="round"/>
</svg>
