<svg width="16" height="16" viewBox="0 0 16 16" fill="none" xmlns="http://www.w3.org/2000/svg">
<path d="M4.66659 3.33341V1.33341C4.66659 1.1566 4.73682 0.987034 4.86185 0.86201C4.98687 0.736986 5.15644 0.666748 5.33325 0.666748H10.6666C10.8434 0.666748 11.013 0.736986 11.138 0.86201C11.263 0.987034 11.3333 1.1566 11.3333 1.33341V3.33341H13.9999C14.1767 3.33341 14.3463 3.40365 14.4713 3.52868C14.5963 3.6537 14.6666 3.82327 14.6666 4.00008V13.3334C14.6666 13.5102 14.5963 13.6798 14.4713 13.8048C14.3463 13.9298 14.1767 14.0001 13.9999 14.0001H1.99992C1.82311 14.0001 1.65354 13.9298 1.52851 13.8048C1.40349 13.6798 1.33325 13.5102 1.33325 13.3334V4.00008C1.33325 3.82327 1.40349 3.6537 1.52851 3.52868C1.65354 3.40365 1.82311 3.33341 1.99992 3.33341H4.66659ZM2.66659 10.6667V12.6667H13.3333V10.6667H2.66659ZM2.66659 9.33341H13.3333V4.66675H2.66659V9.33341ZM5.99992 2.00008V3.33341H9.99992V2.00008H5.99992ZM7.33325 7.33341H8.66659V8.66675H7.33325V7.33341Z" fill="#141F27"/>
</svg>
